<svg xmlns="http://www.w3.org/2000/svg" viewBox="0 0 1200 380" preserveAspectRatio="xMidYMid slice">
  <defs>
    <linearGradient id="g" x1="0" y1="0" x2="1" y2="1">
      <stop offset="0" stop-color="#eaf2ff"/>
      <stop offset="0.45" stop-color="#fff7e6"/>
      <stop offset="1" stop-color="#e7fff4"/>
    </linearGradient>
    <linearGradient id="blue" x1="0" y1="0" x2="1" y2="1">
      <stop offset="0" stop-color="#1246a8"/>
      <stop offset="1" stop-color="#6d28d9"/>
    </linearGradient>
    <filter id="shadow" x="-20%" y="-20%" width="140%" height="140%">
      <feDropShadow dx="0" dy="18" stdDeviation="18" flood-color="#0f172a" flood-opacity="0.18"/>
    </filter>
  </defs>
  <rect width="1200" height="380" fill="url(#g)"/>
  <circle cx="1070" cy="60" r="180" fill="#fbbf24" opacity="0.22"/>
  <circle cx="118" cy="330" r="170" fill="#2563eb" opacity="0.12"/>
  <path d="M0 305 C190 250 240 335 405 285 C560 238 665 298 810 254 C980 200 1060 246 1200 216 L1200 380 L0 380 Z" fill="#ffffff" opacity="0.62"/>
  <g transform="translate(760 88)" filter="url(#shadow)">
    <rect x="0" y="72" width="280" height="125" rx="22" fill="#ffffff" opacity="0.94"/>
    <rect x="22" y="96" width="92" height="62" rx="12" fill="#eef2ff"/>
    <rect x="130" y="100" width="118" height="12" rx="6" fill="#c7d2fe"/>
    <rect x="130" y="124" width="88" height="10" rx="5" fill="#dbeafe"/>
    <rect x="130" y="152" width="102" height="24" rx="12" fill="#dcfce7"/>
    <text x="154" y="169" fill="#15803d" font-family="Arial" font-size="13" font-weight="700">APPROVED</text>
  </g>
  <g transform="translate(510 126)" filter="url(#shadow)">
    <rect x="0" y="50" width="128" height="90" rx="8" fill="#f8fafc"/>
    <path d="M-8 52 L64 0 L136 52 Z" fill="url(#blue)"/>
    <rect x="48" y="90" width="32" height="50" rx="4" fill="#dbeafe"/>
    <rect x="18" y="75" width="28" height="24" rx="3" fill="#bfdbfe"/>
    <rect x="84" y="75" width="28" height="24" rx="3" fill="#bfdbfe"/>
  </g>
  <g transform="translate(310 118)">
    <ellipse cx="80" cy="142" rx="96" ry="24" fill="#0f172a" opacity="0.08"/>
    <g filter="url(#shadow)">
      <rect x="0" y="80" width="160" height="26" rx="13" fill="#fbbf24"/>
      <rect x="12" y="55" width="160" height="26" rx="13" fill="#f59e0b"/>
      <rect x="-4" y="30" width="160" height="26" rx="13" fill="#fbbf24"/>
      <rect x="18" y="5" width="160" height="26" rx="13" fill="#f59e0b"/>
    </g>
  </g>
  <g transform="translate(75 105)">
    <rect x="0" y="0" width="270" height="150" rx="28" fill="#ffffff" opacity="0.64"/>
    <circle cx="55" cy="74" r="28" fill="#dbeafe"/>
    <path d="M43 74 q12 -22 24 0 q-12 18 -24 0Z" fill="#2563eb" opacity="0.9"/>
    <rect x="98" y="45" width="120" height="14" rx="7" fill="#bfdbfe"/>
    <rect x="98" y="74" width="90" height="12" rx="6" fill="#dbeafe"/>
    <rect x="98" y="104" width="136" height="18" rx="9" fill="#dcfce7"/>
  </g>
</svg>
